<?xml version="1.0" standalone="no"?>
<!DOCTYPE svg PUBLIC "-//W3C//DTD SVG 20010904//EN"
 "http://www.w3.org/TR/2001/REC-SVG-20010904/DTD/svg10.dtd">
<svg version="1.0" xmlns="http://www.w3.org/2000/svg"
 width="500.000000pt" height="500.000000pt" viewBox="0 0 500.000000 500.000000"
 preserveAspectRatio="xMidYMid meet">
<metadata>
Created by potrace 1.16, written by Peter Selinger 2001-2019
</metadata>
<g transform="translate(0.000000,500.000000) scale(0.100000,-0.100000)"
fill="#000000" stroke="none">
<path d="M2418 2825 l2 -685 -40 0 -40 0 -3 638 -2 637 0 -645 0 -645 29 -3
c15 -2 39 -1 52 2 l24 6 0 653 c0 609 -3 727 -19 727 -3 0 -5 -308 -3 -685z"/>
<path d="M2528 3473 l22 -15 0 -659 0 -659 -34 0 c-34 0 -35 1 -39 48 -3 46
-3 46 -5 -10 l-2 -58 38 0 c20 0 43 4 50 8 10 7 12 138 10 670 -3 648 -3 661
-23 676 -11 9 -24 15 -30 15 -5 0 0 -7 13 -16z"/>
<path d="M2740 3333 c0 -4 18 -18 40 -31 l40 -23 0 -574 0 -575 -34 0 c-30 0
-34 3 -39 33 -3 17 -6 218 -6 446 -1 228 -4 417 -6 420 -3 2 -4 -200 -3 -450
l3 -454 50 0 50 0 -3 575 c-3 471 -6 577 -17 590 -19 21 -75 53 -75 43z"/>
<path d="M2148 2730 l2 -600 -35 0 -35 0 0 63 c-1 47 -3 58 -11 44 -5 -9 -9
-39 -7 -65 l3 -47 50 0 50 0 3 160 c5 217 -9 1045 -17 1045 -3 0 -5 -270 -3
-600z"/>
<path d="M3078 2989 l-228 -141 0 -59 c0 -35 4 -59 11 -59 6 0 72 33 147 74
75 40 178 94 229 119 l91 46 16 -24 c9 -14 23 -37 32 -52 16 -28 16 -28 -2 -7
-11 12 -23 28 -29 37 -8 13 -47 -3 -252 -104 l-243 -120 0 -59 c0 -33 4 -60
10 -60 7 0 231 87 456 177 6 2 44 -33 85 -79 l74 -83 -62 54 c-35 29 -63 57
-63 62 0 18 -35 8 -229 -62 -108 -38 -212 -76 -231 -82 -34 -13 -35 -14 -38
-76 l-3 -63 28 4 c15 3 64 15 108 27 167 47 303 81 326 83 15 1 51 -18 97 -51
39 -29 72 -54 72 -57 0 -8 -54 18 -97 47 l-46 32 -96 -21 c-53 -12 -148 -33
-211 -47 -195 -43 -175 -31 -178 -103 -3 -54 -1 -62 15 -62 10 0 117 13 238
30 l219 29 84 -30 c46 -16 88 -27 93 -23 12 7 11 111 -1 119 -7 4 -7 12 0 25
14 26 13 113 -2 128 -8 8 -8 15 2 27 7 9 9 15 3 13 -6 -2 -46 35 -88 82 -42
47 -81 86 -85 88 -4 2 -109 -38 -234 -88 -124 -49 -228 -90 -231 -90 -3 0 -5
22 -5 50 l0 50 230 115 c126 63 233 115 237 114 5 0 31 -33 60 -73 28 -40 59
-73 68 -73 8 0 14 3 13 6 -10 21 -134 201 -139 201 -3 0 -108 -54 -233 -120
-125 -66 -230 -120 -233 -120 -2 0 -3 23 -1 52 l3 52 218 137 c206 129 236
149 226 149 -2 0 -106 -63 -231 -141z m340 -362 l83 -84 -3 -52 -3 -52 -82 61
-82 62 -231 -61 c-127 -34 -233 -61 -236 -61 -3 0 -4 23 -2 52 l3 52 225 82
c124 46 230 83 235 83 6 1 48 -36 93 -82z m-3 -179 l84 -53 1 -52 c0 -29 -1
-53 -3 -53 -2 0 -40 14 -85 30 l-83 30 -225 -30 c-124 -16 -230 -30 -235 -30
-6 0 -9 23 -7 52 l3 52 225 52 c124 29 228 53 233 53 4 1 45 -23 92 -51z"/>
<path d="M1586 2709 c-90 -95 -96 -103 -96 -143 0 -53 7 -60 39 -40 22 13 20
11 -6 -16 -27 -26 -33 -39 -33 -75 0 -24 4 -46 8 -49 4 -2 46 18 92 45 47 27
91 49 98 49 24 0 327 -95 312 -97 -8 -2 -83 14 -166 35 l-152 38 -93 -46 -94
-47 0 -54 c0 -48 2 -54 20 -51 18 3 18 1 -3 -16 -20 -15 -23 -26 -20 -68 l3
-49 275 0 275 0 3 49 c2 27 0 52 -5 57 -4 4 -87 17 -183 28 -150 16 -184 17
-235 7 -75 -16 -108 -7 -45 12 82 24 140 24 300 -1 85 -14 158 -23 163 -20 13
8 8 113 -5 113 -10 0 -10 2 0 9 9 5 12 25 10 61 l-3 53 -140 54 c-77 30 -159
61 -182 70 l-42 15 -61 -47 c-34 -26 -63 -45 -65 -43 -4 4 98 97 122 111 10 6
110 -34 296 -117 32 -14 62 -26 68 -26 6 0 9 21 7 52 l-3 52 -60 34 c-33 19
-115 63 -181 98 l-122 64 -96 -101z m362 -52 l92 -51 0 -44 c0 -31 -4 -43 -12
-39 -7 3 -79 34 -159 70 -81 36 -156 68 -168 72 -16 5 -39 -10 -108 -70 l-88
-75 -3 40 c-3 39 1 45 89 140 l92 100 86 -46 c47 -26 128 -69 179 -97z m-73
-111 l160 -64 3 -45 3 -45 -176 51 -175 51 -43 -21 c-23 -12 -66 -36 -94 -53
l-53 -30 0 43 c0 44 1 45 91 116 57 44 98 70 108 66 9 -2 88 -34 176 -69z m-5
-150 l165 -43 3 -41 c4 -51 13 -50 -198 -18 l-155 23 -85 -23 c-47 -13 -88
-24 -92 -24 -5 0 -8 18 -8 40 l0 40 88 44 c48 25 94 45 102 45 8 1 89 -19 180
-43z m3 -153 l167 -17 0 -43 0 -43 -270 0 -270 0 0 43 0 44 78 15 c103 21 102
21 295 1z"/>
<path d="M3195 2288 c-44 -4 -138 -14 -210 -21 l-130 -12 -3 -62 -3 -63 331 0
330 0 0 59 c0 33 -5 63 -11 67 -23 14 -155 44 -189 42 -19 0 -71 -5 -115 -10z
m220 -21 l80 -22 3 -52 3 -53 -321 0 -321 0 3 53 3 52 215 21 c266 27 240 26
335 1z"/>
</g>
</svg>
